<svg xmlns="http://www.w3.org/2000/svg" width="80" height="80" viewBox="0 0 80 80" fill="none">
  <rect x="0.5" y="0.5" width="79" height="79" rx="39.5" fill="#F0F8FF"/>
  <rect x="0.5" y="0.5" width="79" height="79" rx="39.5" stroke="#42A5F5"/>
  <path d="M40.0125 66.4758C42.7869 66.4758 45.499 65.6592 47.8059 64.1292C50.1128 62.5992 51.9108 60.4246 52.9725 57.8803C54.0342 55.3361 54.312 52.5364 53.7708 49.8354C53.2295 47.1345 51.8935 44.6535 49.9316 42.7062C47.9698 40.7589 45.4703 39.4327 42.7492 38.8955C40.028 38.3582 37.2075 38.634 34.6442 39.6878C32.081 40.7417 29.8901 42.5264 28.3487 44.8161C26.8073 47.1059 25.9846 49.798 25.9846 52.5519C25.9888 56.2435 27.468 59.7827 30.0979 62.393C32.7277 65.0034 36.2933 66.4717 40.0125 66.4758ZM37.6349 50.6639V40.2705C39.2055 39.9703 40.8194 39.9703 42.3901 40.2705V50.6639C42.3901 50.8517 42.4652 51.0317 42.599 51.1645C42.7327 51.2973 42.9142 51.3719 43.1033 51.3719H44.0544C44.1924 51.3705 44.3278 51.409 44.444 51.4828C44.5603 51.5565 44.6524 51.6623 44.709 51.7872C44.7657 51.9121 44.7845 52.0507 44.763 52.186C44.7416 52.3213 44.6809 52.4474 44.5884 52.549L40.5465 57.0802C40.4783 57.1529 40.3957 57.2109 40.3039 57.2506C40.2121 57.2903 40.1131 57.3107 40.0129 57.3107C39.9128 57.3107 39.8138 57.2903 39.722 57.2506C39.6302 57.2109 39.5476 57.1529 39.4794 57.0802L35.4375 52.549C35.345 52.4475 35.2844 52.3214 35.2629 52.1862C35.2414 52.051 35.2601 51.9125 35.3167 51.7876C35.3732 51.6628 35.4651 51.557 35.5813 51.4832C35.6974 51.4093 35.8326 51.3707 35.9705 51.3719H36.9216C37.1108 51.3719 37.2922 51.2973 37.4259 51.1645C37.5597 51.0317 37.6349 50.8517 37.6349 50.6639ZM36.2083 40.6278V49.9559H35.9705C35.56 49.9596 35.159 50.08 34.8152 50.3028C34.4714 50.5256 34.1992 50.8416 34.0306 51.2132C33.8621 51.5848 33.8043 51.9966 33.8642 52.3998C33.9241 52.803 34.0991 53.1808 34.3685 53.4883L38.4104 58.0171C38.6123 58.2402 38.8593 58.4187 39.1352 58.5408C39.4111 58.663 39.7099 58.7261 40.012 58.7261C40.3141 58.7261 40.6129 58.663 40.8888 58.5408C41.1647 58.4187 41.4117 58.2402 41.6135 58.0171L45.6555 53.486C45.9241 53.1784 46.0985 52.801 46.158 52.3982C46.2175 51.9955 46.1596 51.5843 45.9913 51.2131C45.823 50.842 45.5511 50.5264 45.2079 50.3036C44.8647 50.0808 44.4644 49.9602 44.0544 49.9559H43.8166V40.6278C46.6848 41.5293 49.1333 43.4196 50.7197 45.957C52.306 48.4944 52.9254 51.5114 52.4659 54.4626C52.0064 57.4138 50.4983 60.1044 48.2143 62.048C45.9302 63.9917 43.021 65.0601 40.0125 65.0601C37.0039 65.0601 34.0947 63.9917 31.8107 62.048C29.5266 60.1044 28.0185 57.4138 27.559 54.4626C27.0995 51.5114 27.7189 48.4944 29.3052 45.957C30.8916 43.4196 33.3401 41.5293 36.2083 40.6278Z" fill="#1976D2"/>
  <path d="M67.1082 39.8047C67.8214 32.5633 61.4808 25.5975 54.1521 25.5579C50.0279 11.6472 32.0038 10.5502 26.3651 23.87C17.6569 25.927 12.6359 32.0039 13.9835 39.1599C10.4599 40.8591 9.38239 44.5926 9.90308 47.4727C10.1542 49.0958 10.9866 50.5746 12.2476 51.6376C13.5085 52.7007 15.1134 53.2766 16.7677 53.2599H23.8449C24.034 53.2599 24.2155 53.1853 24.3492 53.0525C24.483 52.9198 24.5581 52.7397 24.5581 52.5519C24.5581 52.3641 24.483 52.184 24.3492 52.0513C24.2155 51.9185 24.034 51.8439 23.8449 51.8439H16.7829C15.4599 51.8672 14.1737 51.4107 13.1657 50.5599C12.1576 49.7091 11.4968 48.5224 11.3073 47.2226C10.8594 44.7465 11.8437 41.5067 15.0606 40.237C15.8466 39.9843 16.676 39.8923 17.4988 39.9668C18.3216 40.0413 19.1207 40.2806 19.8476 40.6703C19.9303 40.7141 20.0209 40.7412 20.1141 40.7502C20.2074 40.7593 20.3015 40.75 20.3911 40.7229C20.4808 40.6958 20.5642 40.6515 20.6365 40.5924C20.7089 40.5333 20.7689 40.4607 20.8129 40.3786C20.857 40.2965 20.8844 40.2067 20.8935 40.1141C20.9026 40.0215 20.8932 39.9281 20.8659 39.8391C20.8386 39.7501 20.794 39.6674 20.7344 39.5955C20.6749 39.5237 20.6017 39.4642 20.5191 39.4204C18.9347 38.5881 17.108 38.3286 15.3521 38.6865C14.2779 32.0672 19.1248 26.9663 27.038 25.1609C29.7233 24.6544 32.5023 25.0781 34.9107 26.3612C35.076 26.4525 35.2711 26.4748 35.453 26.4233C35.635 26.3718 35.7888 26.2506 35.8807 26.0865C35.9727 25.9224 35.9952 25.7288 35.9433 25.5482C35.8914 25.3676 35.7693 25.2149 35.604 25.1236C33.2948 23.8935 30.6729 23.3621 28.0627 23.5953C33.5788 12.4 48.8363 13.6753 52.658 25.5904C50.7043 25.7302 48.8065 26.3004 47.1027 27.2597C45.3989 28.219 43.932 29.5432 42.8086 31.1359C42.7024 31.2887 42.661 31.4768 42.6931 31.6597C42.7253 31.8425 42.8285 32.0055 42.9806 32.1136C43.1326 32.2216 43.3214 32.2661 43.5061 32.2374C43.6909 32.2087 43.8569 32.1091 43.9684 31.96C45.0523 30.419 46.4952 29.1605 48.1742 28.2916C49.8533 27.4228 51.7189 26.9693 53.6124 26.9696C60.108 26.7336 65.9869 32.6378 65.7115 39.0697C64.7997 38.6981 63.8232 38.5079 62.8375 38.51C62.6483 38.51 62.4669 38.5846 62.3331 38.7173C62.1994 38.8501 62.1242 39.0302 62.1242 39.218C62.1242 39.4057 62.1994 39.5858 62.3331 39.7186C62.4669 39.8514 62.6483 39.926 62.8375 39.926C66.8319 40.0204 68.7886 42.9467 68.8105 45.9586C68.7439 49.0393 66.4077 52.0001 63.1861 51.8439H56.1802C55.9911 51.8439 55.8096 51.9185 55.6759 52.0513C55.5421 52.184 55.4669 52.3641 55.4669 52.5519C55.4669 52.7397 55.5421 52.9198 55.6759 53.0525C55.8096 53.1853 55.9911 53.2599 56.1802 53.2599H63.1642C67.1476 53.444 70.1838 49.844 70.2361 45.9576C70.1534 43.2063 69.0478 41.0408 67.1082 39.8047Z" fill="#1976D2"/>
</svg>