<svg xmlns="http://www.w3.org/2000/svg" width="80" height="80" viewBox="0 0 80 80" fill="none">
  <rect x="0.5" y="0.5" width="79" height="79" rx="39.5" fill="#F0F8FF"/>
  <rect x="0.5" y="0.5" width="79" height="79" rx="39.5" stroke="#42A5F5"/>
  <path d="M17.4514 36.3997C17.4514 36.0313 17.7531 35.7301 18.117 35.7301H23.8843L26.4087 26.6012C26.4847 26.3232 26.738 26.1216 27.0282 26.11C27.3231 26.0984 27.5833 26.2814 27.6778 26.5548L31.4574 37.3493L34.3111 29.9956C34.424 29.7176 34.7004 29.5392 35.0021 29.5739C35.3038 29.6087 35.5388 29.8358 35.5848 30.137L37.3353 41.3715L40.8962 24.106C40.9606 23.8024 41.2209 23.5846 41.5272 23.5731C41.8336 23.5661 42.11 23.7677 42.1883 24.0712L45.2907 35.7322H57.3552C57.7214 35.7322 58.0208 36.0358 58.0208 36.4018C58.0208 36.7702 57.7191 37.0714 57.3552 37.0714L44.7907 37.0691C44.489 37.0691 44.2241 36.8675 44.1481 36.571L41.6422 27.1413L37.9041 45.2479C37.8396 45.5561 37.5678 45.7808 37.2545 45.7808H37.2361C36.9114 45.7739 36.6465 45.5376 36.5935 45.2178L34.6611 32.7922L32.0493 39.5184C31.9479 39.7802 31.6946 39.9447 31.4182 39.9447C31.1418 39.9377 30.893 39.7617 30.7986 39.4998L27.1272 29.0085L25.0335 36.5781C24.9506 36.8677 24.6927 37.0692 24.391 37.0692H18.1167C17.7505 37.0692 17.4514 36.7727 17.4514 36.3997ZM66.4668 64.5481L64.9213 66.1028C64.6864 66.3391 64.3662 66.4758 64.03 66.4758C63.6937 66.4758 63.3758 66.3461 63.1386 66.1028L58.2028 61.1376C57.8895 60.8225 57.779 60.3893 57.8619 59.9861L55.6577 57.7688C54.0707 58.8717 52.1498 59.525 50.0792 59.525C48.2643 59.525 46.5714 59.0199 45.1088 58.1557V60.7947H47.343C48.6236 60.7947 49.667 61.8442 49.667 63.1324C49.667 64.4207 48.6236 65.4702 47.343 65.4702L28.1452 65.4679C26.8646 65.4679 25.8213 64.4184 25.8213 63.1301C25.8213 61.8419 26.8646 60.7923 28.1452 60.7923H30.3794V55.9754L15.9517 55.9777C13.9226 55.9777 12.2734 54.3165 12.2734 52.2776V22.176C12.2734 20.1348 13.9249 18.4758 15.9517 18.4758H59.5313C61.5605 18.4758 63.2096 20.1371 63.2096 22.176V52.2657C63.2096 54.3069 61.5582 55.9659 59.5313 55.9659H58.9186L60.3858 57.4418C60.4687 57.4232 60.5516 57.4186 60.6391 57.4186C60.9754 57.4186 61.2933 57.5484 61.5305 57.7916L66.4663 62.7568C66.9615 63.2503 66.962 64.05 66.4668 64.5481ZM61.8787 52.2661V50.8852H59.8265C59.6561 52.2383 59.207 53.5011 58.5459 54.6271H59.5248C60.8284 54.6247 61.8787 53.5636 61.8787 52.2661ZM13.6051 22.1763V49.5483H40.2399C40.2745 44.1151 44.6736 39.7082 50.0814 39.7082C55.4895 39.7082 59.8864 44.115 59.9229 49.5483H61.8853V22.1763C61.8853 20.8719 60.8304 19.8154 59.5383 19.8154H15.9516C14.6549 19.8154 13.6051 20.8695 13.6051 22.1763ZM15.9522 54.625H41.6011C40.94 53.499 40.4932 52.2339 40.3205 50.8831H13.6049V52.264C13.6049 53.5638 14.6554 54.625 15.9522 54.625ZM47.3382 62.1228H28.1451C27.5969 62.1228 27.1547 62.5677 27.1547 63.1191C27.1547 63.6705 27.5969 64.1154 28.1451 64.1154H47.3382C47.8863 64.1154 48.3286 63.6705 48.3286 63.1191C48.3286 62.5677 47.8863 62.1228 47.3382 62.1228ZM43.7704 57.2132C43.3213 56.8333 42.909 56.4186 42.5313 55.9667H31.7127V60.7836H43.7772V57.2132H43.7704ZM50.0742 58.1725C54.7682 58.1725 58.589 54.3287 58.589 49.607C58.589 44.8851 54.7679 41.0415 50.0742 41.0415C45.3802 41.0439 41.5593 44.8877 41.5593 49.6094C41.5593 54.336 45.3804 58.1725 50.0742 58.1725ZM56.6957 56.9167L58.6535 58.8861L59.2961 58.2397L57.3383 56.2703C57.1379 56.4997 56.9191 56.7151 56.6957 56.9167ZM65.48 63.6541L60.6386 58.7839L59.1945 60.2366L64.0359 65.1068L65.48 63.6541ZM57.2553 49.6087C57.2553 53.5891 54.0354 56.833 50.0736 56.833C46.1118 56.833 42.8919 53.594 42.8919 49.6087C42.8919 45.6282 46.1118 42.3843 50.0736 42.3843C54.0354 42.3843 57.2553 45.628 57.2553 49.6087ZM55.924 49.6087C55.924 46.3649 53.3006 43.7236 50.0738 43.7236C46.8492 43.7236 44.2235 46.3626 44.2235 49.6087C44.2235 52.8524 46.8469 55.4937 50.0738 55.4937C53.2983 55.4914 55.924 52.8524 55.924 49.6087Z" fill="#1976D2"/>
</svg>