<svg xmlns="http://www.w3.org/2000/svg" width="80" height="80" viewBox="0 0 80 80" fill="none">
  <rect x="0.5" y="0.5" width="79" height="79" rx="39.5" fill="#F0F8FF"/>
  <rect x="0.5" y="0.5" width="79" height="79" rx="39.5" stroke="#42A5F5"/>
  <path fill-rule="evenodd" clip-rule="evenodd" d="M59.2678 37.6691C58.9809 37.6691 58.7282 37.4655 58.6781 37.178C57.1414 28.4802 49.7169 21.9487 40.8967 21.4371V23.7411C40.8967 23.9606 40.7737 24.1643 40.5779 24.2684C40.3821 24.3726 40.1454 24.359 39.9609 24.2345L33.5543 19.8981C33.3904 19.7872 33.2925 19.6039 33.2925 19.407C33.2925 19.2101 33.3904 19.0245 33.5543 18.9158L39.9609 14.5794C40.1454 14.455 40.3821 14.4414 40.5779 14.5455C40.7737 14.6473 40.8967 14.851 40.8967 15.0706V17.4311C45.9966 17.6801 50.9164 19.6106 54.8098 22.9059C58.8533 26.3257 61.6174 31.0672 62.5937 36.2568C62.6529 36.5805 62.4389 36.8906 62.1133 36.9516C61.7877 37.0128 61.4758 36.7978 61.4144 36.4764C59.5133 26.3596 50.6247 18.8408 40.2815 18.601C39.956 18.5919 39.6964 18.3294 39.6964 18.0058V16.1952L34.954 19.4045L39.6964 22.616V20.8167C39.6964 20.6561 39.7625 20.5022 39.8763 20.389C39.9924 20.2781 40.1472 20.2147 40.3089 20.2215C49.9643 20.4727 58.1836 27.5184 59.8523 36.974C59.9092 37.2977 59.6906 37.6055 59.365 37.6621C59.3286 37.6689 59.2945 37.6711 59.2603 37.6711L59.2678 37.6691Z" fill="#1976D2"/>
  <path fill-rule="evenodd" clip-rule="evenodd" d="M18.4889 46.8285C18.2909 46.8285 18.1064 46.7312 17.9926 46.5682L13.6304 40.1995C13.5051 40.0185 13.4915 39.7808 13.5962 39.5862C13.7009 39.3916 13.9036 39.2693 14.1267 39.2693H16.5013C16.7518 34.1997 18.6938 29.3067 22.0065 25.434C25.4489 21.4123 30.2188 18.6644 35.4393 17.7003C35.7649 17.6392 36.0768 17.8542 36.1383 18.1779C36.1997 18.5015 35.9834 18.8116 35.6579 18.8704C25.4808 20.7489 17.9195 29.5845 17.6759 39.878C17.6691 40.1994 17.4027 40.4597 17.0772 40.4597H15.2558L18.4842 45.174L21.7126 40.4597H19.9026C19.741 40.4597 19.5862 40.394 19.4746 40.2809C19.3608 40.1654 19.3016 40.0115 19.3038 39.8508C19.5452 30.2434 26.6349 22.0728 36.1562 20.4209C36.4818 20.3644 36.7914 20.5816 36.8484 20.9053C36.9053 21.2289 36.6867 21.539 36.3611 21.5956C27.6004 23.1142 21.0294 30.4944 20.5241 39.2716H22.8418C23.0626 39.2716 23.2676 39.3939 23.3723 39.5885C23.477 39.7831 23.4634 40.0185 23.3381 40.2018L18.9759 46.5705C18.8643 46.7335 18.6799 46.8308 18.4818 46.8308L18.4889 46.8285Z" fill="#1976D2"/>
  <path fill-rule="evenodd" clip-rule="evenodd" d="M39.0727 66.4758C38.9771 66.4758 38.8814 66.4532 38.7927 66.4057C38.5968 66.3038 38.4739 66.1001 38.4739 65.8806V63.52C33.374 63.2711 28.4519 61.3405 24.5561 58.0452C20.5104 54.6255 17.7462 49.8816 16.7763 44.692C16.7148 44.3683 16.9311 44.0583 17.2567 43.9994C17.5823 43.9383 17.8942 44.1533 17.9557 44.477C19.8454 54.5937 28.7336 62.1102 39.0885 62.3501C39.414 62.3591 39.6736 62.6217 39.6736 62.9453V64.7559L44.416 61.5466L39.6736 58.335V60.1343C39.6736 60.295 39.6076 60.4489 39.4937 60.562C39.3776 60.6729 39.2228 60.7386 39.0611 60.7295C29.3964 60.4896 21.1771 53.4419 19.5154 43.977C19.4585 43.6534 19.6771 43.3433 20.0026 43.2867C20.3282 43.2324 20.6378 43.4474 20.6948 43.771C22.2225 52.4799 29.6467 59.0096 38.4762 59.512V57.208C38.4762 56.9884 38.5992 56.7847 38.795 56.6829C38.9908 56.5788 39.2276 56.5923 39.412 56.7168L45.8186 61.0532C45.9825 61.1641 46.0804 61.3474 46.0804 61.5444C46.0804 61.7413 45.9825 61.9268 45.8186 62.0355L39.412 66.3719C39.3118 66.442 39.1934 66.476 39.075 66.476L39.0727 66.4758Z" fill="#1976D2"/>
  <path fill-rule="evenodd" clip-rule="evenodd" d="M43.8199 63.2573C43.5376 63.2573 43.2849 63.0581 43.2325 62.7707C43.1711 62.4471 43.3874 62.137 43.7106 62.0759C53.8877 60.1861 61.449 51.3502 61.6926 41.0683C61.6994 40.7447 61.9658 40.4867 62.2914 40.4867H64.1128L60.882 35.7723L57.6536 40.4867H59.4636C59.6253 40.4867 59.7801 40.5523 59.8939 40.6677C60.0055 40.7832 60.067 40.9393 60.0624 41.0978C59.8097 50.696 52.7197 58.8665 43.21 60.5253C42.8844 60.5819 42.5748 60.3669 42.5156 60.041C42.4587 59.7174 42.6773 59.4073 43.0028 59.3507C51.7525 57.823 58.3229 50.4426 58.8399 41.6746H56.5222C56.299 41.6746 56.0964 41.5524 55.9917 41.3578C55.887 41.1631 55.9006 40.9278 56.0258 40.7444L60.3881 34.3758C60.4996 34.2128 60.6863 34.1155 60.8821 34.1155C61.0802 34.1155 61.2669 34.2128 61.3762 34.3758L65.7384 40.7444C65.8637 40.9255 65.8773 41.1631 65.7726 41.3578C65.6679 41.5524 65.4652 41.6746 65.2444 41.6746H62.8675C62.6193 46.742 60.675 51.635 57.3623 55.5053C53.9222 59.5248 49.1524 62.2726 43.9295 63.2413C43.8931 63.2481 43.8544 63.2526 43.8179 63.2526L43.8199 63.2573Z" fill="#1976D2"/>
  <path fill-rule="evenodd" clip-rule="evenodd" d="M29.0844 51.2263H50.2877V29.721H29.0844V51.2263ZM50.8863 52.4167H28.4852C28.1551 52.4167 27.8865 52.1497 27.8865 51.8215V29.1233C27.8865 28.7951 28.1551 28.5281 28.4852 28.5281H50.8863C51.2164 28.5281 51.4851 28.7951 51.4851 29.1233V51.8215C51.4851 52.1497 51.2164 52.4167 50.8863 52.4167Z" fill="#1976D2"/>
  <path fill-rule="evenodd" clip-rule="evenodd" d="M36.6278 29.7205V36.132L39.2119 32.7824C39.3257 32.6353 39.501 32.5493 39.6877 32.5493C39.8744 32.5493 40.0497 32.6353 40.1636 32.7824L42.7477 36.132V29.7205H36.6278ZM43.3439 38.4838C43.1618 38.4838 42.9842 38.4 42.8681 38.2507L39.6852 34.1248L36.5023 38.2507C36.3452 38.4543 36.0766 38.5336 35.8353 38.4521C35.5917 38.3706 35.4277 38.142 35.4277 37.8885V29.1252C35.4277 28.7971 35.6964 28.53 36.0265 28.53H43.3418C43.6719 28.53 43.9405 28.7971 43.9405 29.1252V37.8885C43.9405 38.142 43.7766 38.3706 43.533 38.4521C43.4693 38.4747 43.4055 38.4838 43.3395 38.4838L43.3439 38.4838Z" fill="#1976D2"/>
  <path fill-rule="evenodd" clip-rule="evenodd" d="M38.3785 47.7313C38.3102 47.7313 38.2419 47.72 38.1758 47.6951C36.9328 47.2492 35.9606 46.2828 35.5098 45.0448C35.1045 43.9358 35.1569 42.7363 35.6623 41.6703C36.1655 40.6044 37.058 39.7964 38.1759 39.3935C38.4878 39.2826 38.8316 39.441 38.9431 39.7511C39.057 40.0612 38.8953 40.4007 38.5857 40.5138C37.7683 40.8103 37.1149 41.3987 36.7484 42.1773C36.3818 42.9559 36.3431 43.8295 36.6391 44.6397C36.9624 45.5315 37.6909 46.2534 38.5857 46.5748C38.8976 46.6857 39.057 47.0297 38.9454 47.3375C38.8566 47.5797 38.6267 47.7313 38.383 47.7313L38.3785 47.7313Z" fill="#1976D2"/>
  <path fill-rule="evenodd" clip-rule="evenodd" d="M40.992 47.7313C40.7461 47.7313 40.5161 47.5796 40.4296 47.3375C40.318 47.0274 40.4774 46.6857 40.7893 46.5748C41.6841 46.2534 42.4127 45.5291 42.7359 44.6397C43.0319 43.8272 42.9932 42.9536 42.6266 42.1773C42.2601 41.3987 41.6067 40.8103 40.7893 40.5138C40.4774 40.4006 40.318 40.0589 40.4319 39.7511C40.5457 39.441 40.8895 39.2826 41.1991 39.3935C42.317 39.7986 43.2095 40.6066 43.7127 41.6703C44.2158 42.7363 44.2705 43.9359 43.8629 45.0448C43.4144 46.2806 42.4422 47.247 41.1969 47.6928C41.1286 47.7177 41.0603 47.729 40.9942 47.729L40.992 47.7313Z" fill="#1976D2"/>
  <path fill-rule="evenodd" clip-rule="evenodd" d="M40.992 43.1009H38.3783C38.0482 43.1009 37.7795 42.8339 37.7795 42.5057V39.9551C37.7795 39.6246 38.0482 39.3599 38.3783 39.3599C38.7084 39.3599 38.9771 39.6247 38.9771 39.9551V41.9105H40.3909V39.9551C40.3909 39.6246 40.6596 39.3599 40.9897 39.3599C41.3198 39.3599 41.5884 39.6247 41.5884 39.9551V42.5057C41.5884 42.8339 41.3198 43.1009 40.9897 43.1009H40.992Z" fill="#1976D2"/>
  <path fill-rule="evenodd" clip-rule="evenodd" d="M40.992 52.4162H38.3783C38.0482 52.4162 37.7795 52.1491 37.7795 51.8209V47.1338C37.7795 46.8056 38.0482 46.5386 38.3783 46.5386C38.7084 46.5386 38.9771 46.8056 38.9771 47.1338V51.2235H40.3909V47.1338C40.3909 46.8056 40.6596 46.5386 40.9897 46.5386C41.3198 46.5386 41.5884 46.8056 41.5884 47.1338V51.8187C41.5884 52.1469 41.3198 52.4139 40.9897 52.4139L40.992 52.4162Z" fill="#1976D2"/>
</svg>