<svg xmlns="http://www.w3.org/2000/svg" width="80" height="80" viewBox="0 0 80 80" fill="none">
  <rect x="0.5" y="0.5" width="79" height="79" rx="39.5" fill="#F0F8FF"/>
  <rect x="0.5" y="0.5" width="79" height="79" rx="39.5" stroke="#42A5F5"/>
  <path d="M43.204 52.5525C43.3487 52.895 43.187 53.2885 42.8437 53.43C42.0295 53.7697 41.1869 54.0555 40.3301 54.2792V56.6795C40.3301 57.0503 40.0294 57.3504 39.6577 57.3504H31.3114C30.9397 57.3504 30.639 57.0503 30.639 56.6795V54.2792C28.9765 53.8433 27.3849 53.1866 25.8956 52.3176L24.1933 54.016C23.9295 54.2792 23.5039 54.2792 23.2429 54.016L17.3419 48.1284C17.2171 48.0038 17.1462 47.8312 17.1462 47.6529C17.1462 47.4745 17.2171 47.3047 17.3419 47.1773L19.0442 45.4789C18.1732 43.9957 17.515 42.4077 17.0782 40.7462H14.6724C14.3007 40.7462 14 40.4462 14 40.0754V31.748C14 31.3772 14.3007 31.0771 14.6724 31.0771H17.0782C17.5151 29.4184 18.1732 27.8304 19.0442 26.3473L17.3419 24.6489C17.2171 24.5243 17.1462 24.3517 17.1462 24.1733C17.1462 23.995 17.2171 23.8252 17.3419 23.6978L23.2429 17.8102C23.5068 17.5469 23.9323 17.5469 24.1933 17.8102L25.8956 19.5086C27.385 18.6396 28.9737 17.9829 30.639 17.547V15.1467C30.639 14.7759 30.9397 14.4758 31.3114 14.4758H39.6577C40.0294 14.4758 40.3301 14.7759 40.3301 15.1467V17.547C41.9926 17.9829 43.5842 18.6396 45.0707 19.5086L46.773 17.8102C47.0368 17.5469 47.4624 17.5469 47.7234 17.8102L53.6244 23.6978C53.8882 23.961 53.8882 24.3856 53.6244 24.646L51.9221 26.3444C52.7931 27.8277 53.4513 29.4156 53.8881 31.0771H56.2939C56.6656 31.0771 56.9663 31.3772 56.9663 31.748V40.0754C56.9663 40.4462 56.6656 40.7462 56.2939 40.7462H53.8881C53.6952 41.4737 53.4598 42.1955 53.1817 42.8918C53.0456 43.2371 52.654 43.407 52.3079 43.2683C51.9618 43.1324 51.7944 42.7418 51.9306 42.3965C52.2484 41.5954 52.5094 40.7632 52.7051 39.9225C52.776 39.6196 53.0484 39.4045 53.3605 39.4045H55.6187V32.4187H53.3605C53.0484 32.4187 52.776 32.2035 52.7051 31.9007C52.2682 30.0211 51.5249 28.2379 50.5007 26.5962C50.3362 26.3301 50.3759 25.9876 50.5972 25.7668L52.1944 24.1732L47.2438 19.2339L45.6438 20.8303C45.4225 21.0511 45.0792 21.0907 44.8126 20.9265C43.1671 19.9047 41.3797 19.1631 39.4988 18.7272C39.1953 18.6564 38.9797 18.3846 38.9797 18.0733V15.8201H31.9779V18.0733C31.9779 18.3847 31.7623 18.6564 31.4588 18.7272C29.5779 19.1631 27.7905 19.9047 26.145 20.9265C25.8784 21.0907 25.5351 21.0511 25.3138 20.8303L23.7138 19.2339L18.7632 24.1732L20.3632 25.7697C20.5845 25.9904 20.6243 26.3329 20.4597 26.599C19.4355 28.2407 18.6922 30.024 18.2553 31.9007C18.1844 32.2035 17.912 32.4187 17.6 32.4187H15.3417V39.4045H17.6C17.912 39.4045 18.1844 39.6196 18.2553 39.9225C18.6922 41.802 19.4355 43.5853 20.4597 45.227C20.6242 45.4931 20.5845 45.8356 20.3632 46.0563L18.766 47.6499L23.7166 52.5893L25.3167 50.9929C25.5379 50.7721 25.8812 50.7325 26.1479 50.8966C27.7933 51.9185 29.5835 52.6601 31.4616 53.096C31.7652 53.1668 31.9808 53.4385 31.9808 53.7499V56.003H38.9825V53.7499C38.9825 53.4385 39.1981 53.1668 39.5017 53.096C40.4606 52.8724 41.4081 52.5667 42.3188 52.1874C42.6621 52.043 43.0564 52.2044 43.1983 52.5469L43.204 52.5525ZM63.8287 64.1944C62.3535 65.6663 60.3931 66.4758 58.305 66.4758C56.2198 66.4758 54.2566 65.6663 52.7814 64.1944C51.1019 62.5187 50.35 60.2599 50.5231 58.0634L40.5114 48.0744C36.3779 49.4812 31.7707 48.4282 28.6644 45.3315C25.5323 42.2066 24.477 37.4969 25.9777 33.3353C26.0543 33.1202 26.2388 32.9589 26.4629 32.9079C26.687 32.857 26.9225 32.9249 27.0842 33.0891L33.0958 39.087L37.9953 38.4247L38.6592 33.5363L32.6476 27.5383C32.4859 27.377 32.4178 27.142 32.466 26.9184C32.5171 26.6948 32.6788 26.5108 32.8944 26.4344C37.0648 24.937 41.7854 25.99 44.9179 29.1149C48.0244 32.2144 49.0798 36.8083 47.667 40.935L57.6758 50.9212C57.8829 50.9042 58.0928 50.8957 58.3027 50.8957C60.388 50.8957 62.3511 51.7052 63.8264 53.1771C66.8705 56.2143 66.8734 61.1596 63.8264 64.1994L63.8287 64.1944ZM51.7631 54.4264C51.7716 54.4123 51.7801 54.401 51.7887 54.3868C51.8426 54.3075 51.8965 54.2283 51.9532 54.1519C51.9873 54.1066 52.0213 54.0584 52.0553 54.0132C52.1036 53.9509 52.1518 53.8886 52.2 53.8263C52.2511 53.7612 52.305 53.699 52.3589 53.6339C52.3986 53.5886 52.4355 53.5433 52.4752 53.498C52.5745 53.3876 52.6738 53.28 52.7816 53.1753C52.8866 53.0706 52.9972 52.9687 53.1079 52.8696C53.1448 52.8385 53.1816 52.8073 53.2185 52.7762C53.2951 52.7111 53.3717 52.6488 53.4483 52.5865C53.4937 52.5497 53.5391 52.5158 53.5845 52.4818C53.6583 52.4252 53.732 52.3714 53.8086 52.3176C53.854 52.2837 53.8994 52.2525 53.9476 52.2214C54.0583 52.1478 54.1717 52.0742 54.2852 52.0063C54.3306 51.9808 54.376 51.9553 54.4186 51.9298C54.5037 51.8817 54.5916 51.8308 54.6767 51.7855C54.7278 51.7572 54.7817 51.7317 54.8356 51.7062C54.9179 51.6666 55.0002 51.627 55.0824 51.5902C55.1307 51.5675 55.1817 51.5449 55.2328 51.5251C55.3378 51.4798 55.4427 51.4402 55.5477 51.4005C55.5761 51.3892 55.6044 51.3779 55.6328 51.3666C55.7775 51.3156 55.9222 51.2675 56.0697 51.2222H56.0725L46.4153 41.5868C46.228 41.4 46.1684 41.1198 46.2621 40.8707C47.7033 37.1372 46.8011 32.8969 43.9669 30.0694C41.459 27.5672 37.7992 26.5708 34.3946 27.3888L39.8445 32.8264C39.992 32.9736 40.0629 33.183 40.0346 33.3925L39.2572 39.1159C39.2175 39.4159 38.982 39.6509 38.6813 39.6905L32.9449 40.4661C32.735 40.4944 32.5279 40.4236 32.3803 40.2764L26.9304 34.8389C26.1105 38.2356 27.1092 41.887 29.6171 44.3895C32.4512 47.2172 36.7011 48.1173 40.4429 46.6794C40.5224 46.6483 40.6018 46.6342 40.6841 46.6342C40.86 46.6342 41.0302 46.7021 41.1607 46.8295L50.818 56.4649C51.0308 55.7431 51.3513 55.0609 51.7655 54.4325L51.7631 54.4264ZM62.8788 54.1236C61.6588 52.9036 60.0332 52.2327 58.3055 52.2327C58.0275 52.2327 57.7551 52.2525 57.4828 52.2865C57.3125 52.3091 57.1452 52.3346 56.9778 52.3686C56.9749 52.3686 56.9721 52.3686 56.9693 52.3714C56.7962 52.4082 56.6288 52.4507 56.4614 52.4988C56.4586 52.4988 56.4558 52.5016 56.4529 52.5016C56.2997 52.5469 56.1465 52.6007 55.9962 52.6573C55.9678 52.6686 55.9394 52.6771 55.9139 52.6884C55.772 52.745 55.6359 52.8045 55.4997 52.8696C55.4685 52.8837 55.4401 52.9007 55.4089 52.9149C55.2841 52.9771 55.1621 53.0422 55.0429 53.113C55.0259 53.1243 55.006 53.1328 54.989 53.1441C54.8585 53.2206 54.7337 53.3055 54.6089 53.3932C54.5777 53.4131 54.5493 53.4357 54.5181 53.4555C54.3961 53.5433 54.2769 53.6367 54.1606 53.7329L54.0925 53.7923C53.9705 53.8971 53.8514 54.0075 53.7351 54.1207C53.6216 54.2339 53.5166 54.35 53.4116 54.4689C53.3861 54.4972 53.3606 54.5283 53.335 54.5566C53.2443 54.667 53.1563 54.7802 53.0712 54.8934C53.04 54.9387 53.0088 54.984 52.9776 55.0265C52.9237 55.1057 52.8698 55.185 52.8215 55.2671C52.7676 55.3548 52.7166 55.4426 52.6655 55.5303C52.6286 55.5954 52.5918 55.6605 52.5577 55.7256C52.518 55.7992 52.4811 55.8756 52.4471 55.9521C52.4244 56.003 52.4017 56.054 52.379 56.1049C52.3251 56.2323 52.2712 56.3597 52.2258 56.4899C52.2088 56.538 52.1917 56.589 52.1747 56.6399C52.1322 56.7673 52.0953 56.8947 52.0612 57.022C52.0442 57.0843 52.03 57.1466 52.013 57.2088C51.996 57.2853 51.9761 57.3617 51.9619 57.4409C51.9392 57.5542 51.9222 57.6674 51.9052 57.7834C51.6357 59.7196 52.2428 61.7548 53.7322 63.2408C56.2543 65.7572 60.3566 65.7572 62.876 63.2408C65.3981 60.7244 65.3981 56.6314 62.876 54.1177L62.8788 54.1236ZM62.3454 57.2598C62.5156 57.4296 62.5809 57.6759 62.5185 57.908L61.5652 61.4632C61.5028 61.6953 61.3212 61.8765 61.0886 61.9387L57.5254 62.8898C57.4686 62.904 57.409 62.9124 57.3523 62.9124C57.1764 62.9124 57.0033 62.8445 56.8757 62.7171L54.2685 60.1159C54.0983 59.946 54.033 59.6998 54.0954 59.4677L55.0487 55.9125C55.1111 55.6804 55.2927 55.4992 55.5253 55.437L59.0886 54.4859C59.3212 54.4236 59.568 54.4887 59.7382 54.6585L62.3454 57.2598ZM61.1198 57.9335L59.0602 55.8785L56.2487 56.6315L55.494 59.4366L57.5537 61.4916L60.3651 60.7386L61.1198 57.9335Z" fill="#1976D2"/>
</svg>