<svg xmlns="http://www.w3.org/2000/svg" width="80" height="80" viewBox="0 0 80 80" fill="none">
  <rect x="0.5" y="0.5" width="79" height="79" rx="39.5" fill="#F0F8FF"/>
  <rect x="0.5" y="0.5" width="79" height="79" rx="39.5" stroke="#42A5F5"/>
  <path d="M62.507 58.1134L56.7312 48.0513L57.2826 47.7752C58.2406 47.2973 58.7945 46.3338 58.7285 45.2577L58.4921 41.442C58.4744 41.1327 58.5404 40.8797 58.7107 40.6216L60.8122 37.4345C61.4017 36.54 61.4017 35.4257 60.8122 34.5286L58.7107 31.3415C58.5404 31.0834 58.4744 30.8304 58.4921 30.5211L58.7285 26.7079C58.7945 25.6345 58.2406 24.671 57.2826 24.1904L53.8775 22.4883C53.6031 22.3503 53.4176 22.1662 53.2804 21.8877L51.588 18.4629C51.1179 17.5122 50.1574 16.9371 49.085 17.0086L45.2912 17.2463C44.9862 17.2642 44.7321 17.1978 44.4755 17.0265L41.3068 14.9129C40.4326 14.3302 39.2917 14.3302 38.4176 14.9129L35.2514 17.0265C34.9947 17.1978 34.7355 17.2668 34.4357 17.2463L30.6394 17.0086C29.5721 16.9345 28.6065 17.5096 28.1364 18.4629L26.4414 21.8877C26.3042 22.1637 26.1213 22.3477 25.8443 22.4857L22.4392 24.1879C21.4812 24.6658 20.9298 25.6319 20.9959 26.7054L21.2322 30.5211C21.25 30.8304 21.1839 31.0834 21.0137 31.3415L18.9122 34.526C18.3201 35.4231 18.3201 36.5374 18.9122 37.432L21.0137 40.619C21.1839 40.8772 21.25 41.1302 21.2322 41.4394L20.9959 45.2552C20.9298 46.3286 21.4812 47.2922 22.4392 47.7727L22.9907 48.0487L17.2148 58.1082C16.8921 58.6705 16.9353 59.3427 17.3291 59.859C17.723 60.3752 18.3532 60.5874 18.9809 60.4212L25.3361 58.7089C25.4885 58.668 25.6435 58.7574 25.6817 58.9108L27.3842 65.3053C27.5519 65.934 28.0525 66.3762 28.6979 66.4631C28.7691 66.4733 28.8402 66.4758 28.9114 66.4758C29.4678 66.4758 29.9735 66.187 30.2607 65.6861L36.1026 55.5088L38.4125 57.0499C38.8495 57.3413 39.3476 57.4947 39.8584 57.4947C40.3666 57.4947 40.8672 57.3413 41.3043 57.0499L43.6141 55.5088L49.4561 65.6861C49.7432 66.187 50.2463 66.4758 50.8054 66.4758C50.8765 66.4758 50.9477 66.4707 51.0188 66.4631C51.6592 66.3762 52.1623 65.934 52.33 65.3053L54.0325 58.9108C54.0732 58.76 54.2307 58.668 54.3807 58.7089L60.7384 60.4212C61.361 60.5874 61.9962 60.3727 62.3901 59.859C62.7865 59.3478 62.8323 58.6757 62.507 58.1134ZM29.1531 65.0423C29.0921 65.1496 28.988 65.2007 28.8711 65.1828C28.7491 65.1675 28.6652 65.0934 28.6348 64.9732L26.9322 58.5787C26.7086 57.7378 25.8472 57.2395 25.0112 57.4644L18.6534 59.1768C18.534 59.21 18.4298 59.1717 18.3561 59.0746C18.2824 58.9774 18.2748 58.865 18.3358 58.7602L24.1498 48.6293L25.8498 49.4804C26.1268 49.6184 26.3097 49.8024 26.4469 50.081L28.1393 53.5032C28.6145 54.4693 29.5649 55.029 30.6423 54.9575L34.4361 54.7198C34.6445 54.707 34.8376 54.7377 35.0231 54.8169L29.1531 65.0423ZM40.5983 55.9772C40.146 56.2788 39.5819 56.2762 39.1296 55.9772L35.9608 53.8635C35.5187 53.5696 35.0512 53.424 34.5328 53.424C34.4743 53.424 34.4159 53.4265 34.3549 53.4291L30.5611 53.6668C30.0071 53.7076 29.5345 53.4214 29.2906 52.9281L27.5982 49.5059C27.3364 48.9743 26.9527 48.5859 26.4217 48.3226L23.0166 46.6204C22.5236 46.3725 22.2492 45.8971 22.2822 45.3425L22.5185 41.5242C22.5567 40.9313 22.4144 40.4023 22.0891 39.9089L19.9876 36.7219C19.6827 36.2618 19.6827 35.7072 19.9876 35.2472L22.0891 32.0627C22.4169 31.5694 22.5567 31.0404 22.5185 30.4448L22.2822 26.6291C22.2467 26.0745 22.5211 25.5991 23.0166 25.3512L26.4191 23.649C26.9502 23.3858 27.3339 22.9973 27.5956 22.4657L29.2906 19.0409C29.532 18.5502 30.0199 18.2665 30.5611 18.3023L34.3574 18.54C34.4184 18.5451 34.4769 18.5451 34.5353 18.5451C35.0537 18.5451 35.5212 18.402 35.9634 18.1055L39.1296 15.9919C39.5793 15.6903 40.146 15.6903 40.5983 15.9919L43.7645 18.1055C44.2575 18.4352 44.7758 18.5783 45.373 18.54L49.1668 18.3023C49.7132 18.2665 50.1934 18.5502 50.4373 19.0409L52.1297 22.4657C52.394 22.9973 52.7777 23.3857 53.3063 23.649L56.7088 25.3512C57.2043 25.5991 57.4787 26.0745 57.4431 26.6291L57.2068 30.4448C57.1712 31.0378 57.311 31.5668 57.6363 32.0601L59.7378 35.2472C60.0427 35.7098 60.0427 36.2619 59.7378 36.7244L57.6363 39.9115C57.3085 40.4073 57.1687 40.9364 57.2068 41.5293L57.4431 45.3451C57.4787 45.8997 57.2043 46.3751 56.7088 46.623L53.3063 48.3251C52.7777 48.5884 52.394 48.9769 52.1297 49.5085L50.4373 52.9332C50.1959 53.4239 49.7131 53.7102 49.1668 53.6719L45.3705 53.4342C44.7759 53.3958 44.255 53.539 43.7645 53.8686L40.5983 55.9772ZM61.3745 59.0774C61.3008 59.1745 61.1941 59.2103 61.0772 59.1796L54.722 57.4672C53.8885 57.2449 53.0245 57.7433 52.8009 58.5841L51.0984 64.9786C51.0679 65.0962 50.9815 65.1703 50.8646 65.1856C50.7401 65.1984 50.6435 65.1524 50.5825 65.0451L44.7127 54.8193C44.8956 54.7401 45.0888 54.7069 45.2997 54.7222L49.0935 54.9599C50.1531 55.0289 51.1263 54.459 51.5965 53.5056L53.2888 50.0809C53.4261 49.8023 53.609 49.6183 53.886 49.4803L55.586 48.6292L61.4 58.76C61.4559 58.8674 61.4482 58.9803 61.3745 59.0774ZM53.7992 35.6764C53.7992 27.948 47.5481 21.6604 39.8639 21.6604C32.1796 21.6604 25.9285 27.9476 25.9285 35.6764C25.9285 43.4051 32.1796 49.6898 39.8639 49.6898C47.5481 49.6898 53.7992 43.4025 53.7992 35.6764ZM39.8639 48.3963C32.8884 48.3963 27.2172 42.6892 27.2172 35.6764C27.2172 28.6605 32.8914 22.9565 39.8639 22.9565C46.8393 22.9565 52.5131 28.6636 52.5131 35.6764C52.5131 42.6892 46.8389 48.3963 39.8639 48.3963ZM48.5034 29.867C48.1095 29.4709 47.586 29.2536 47.0296 29.2536C46.4731 29.2536 45.9496 29.4709 45.5557 29.867L38.4254 37.0386L34.1691 32.7602C33.7753 32.364 33.2518 32.1468 32.6953 32.1468C32.1389 32.1468 31.6153 32.364 31.2215 32.7602C30.4109 33.578 30.4109 34.907 31.2215 35.7223L36.9516 41.4856C37.3455 41.8818 37.869 42.099 38.4254 42.099C38.9819 42.099 39.5054 41.8818 39.8993 41.4856L48.5036 32.8295C48.8975 32.4333 49.1135 31.9068 49.1135 31.3471C49.1135 30.7875 48.8972 30.2606 48.5034 29.867ZM47.5937 31.9142L38.9893 40.5684C38.6869 40.8725 38.1635 40.8725 37.8611 40.5684L32.1335 34.8076C31.8235 34.4933 31.8235 33.9847 32.1335 33.6729C32.2834 33.5221 32.4841 33.4377 32.6976 33.4377C32.911 33.4377 33.1118 33.5221 33.2617 33.6729L37.9703 38.4087C38.2117 38.6515 38.6386 38.6515 38.88 38.4087L46.465 30.7824C46.7674 30.4783 47.2909 30.4783 47.5907 30.7824C47.7407 30.9332 47.8245 31.1351 47.8245 31.3498C47.8271 31.562 47.7436 31.7634 47.5937 31.9142Z" fill="#1976D2"/>
</svg>